<svg viewBox="37.848347107438016 31.981559999999998 411.2853719008265 334.12314000000003" xmlns="http://www.w3.org/2000/svg" data-name="Capa 1" id="Capa_1" style="max-height: 500px" width="411.2853719008265" height="334.12314000000003"><title>Mesa de trabajo 48</title><g id="Introduction"><g id="variations"><g><path fill-rule="evenodd" fill="#fff" d="M197.3,277.83c-.66-1.82.31-3.64.85-5.41a110.43,110.43,0,0,1,6.94-17.93,2.56,2.56,0,0,0-2.85-3.72c-3.65.52-7.41.11-11.06-.12-1.34-3.46-4.9-4.89-7.71-6.88-3.19-2-6.28-4.27-9.6-6-.18-1.65-2.18-2.05-3.4-.88-3.35-2.08-7.37-1.7-11-3.06-2.73-4.42-2.94-9.06-3.66-13.33-.31-1.85,0-3.65-1.25-5.3-4.26-6-21.1-8.6-27.31-5.05-3.34-2.08-3.42,1.7-4,4a7.35,7.35,0,0,0-.81,3.87c-3.59,7.51-11.8,10.9-19.16,13.65a2.31,2.31,0,0,0-3.12-.05,48.65,48.65,0,0,0-17.9,7.63C76.26,241,72,246,68.89,251.27a2.29,2.29,0,0,0-.32,1.65c-9.5,13.94-14,30.63-14.68,47.48-6.11,3.67,2.91,36.64,5,43.48h0c1.37,2.41,2.91,9.29,6.32,8.76,2.34,2.64,6.06,2.12,9.24,2.33a11.53,11.53,0,0,0,.35,6.21c.73,2.33,4.3,2.41,4.8-.13,31.6,6.14,64,1.24,96,2.16,9.24.06,18.47.35,27.69,1a2.55,2.55,0,0,0,2.53-2.53c-2-21.08-3.85-48.82-6.06-69.7C199.2,287.22,198.79,282.41,197.3,277.83Z"/><path fill-rule="evenodd" fill="#060606" d="M123.85,211.44a.23.23,0,0,1,.46.06c.15,5.93-1.33,13.17-6.07,17.18-2.43,2-5.65,3-8.61,4.08l-.33.12-5.22,1.94c-1.39.52-2.88,1.31-4.11.59,1,2.45,1.82,5,3,7.34a36.68,36.68,0,0,0,5.54,8.1c8.79,9.71,22.72,12.67,35.21,9.83,6.44-1.47,12.7-4.25,17.09-9.31a25.23,25.23,0,0,0,5.71-14.12,1.19,1.19,0,0,1-.42,0,16.1,16.1,0,0,1-4.57-2l-.13-.08a12.85,12.85,0,0,1-3.69-3,16.24,16.24,0,0,1-2-5.3,39,39,0,0,1-.48-6.1c0-.15.64-.23.71-.08.6,1.31.79,4.18,1.25,5.54l.1.27a12.54,12.54,0,0,0,1.93,4.31c1.91,2.16,4.79,3.07,7.37,4.15.18-2.44,4.08-2.38,4,.16,0,.14,0,.28,0,.42.3.17.6.36.88.55l.26.18c1,.69,2.05,1.35,3.14,1.94,2.1,1.14,4.33,2.05,6.48,3.08a33.22,33.22,0,0,1,6.12,3.79,32.2,32.2,0,0,1,2.57,2.24l.22.22a9.82,9.82,0,0,1,2.22,2.64c.1.23.58.75.85.77,4.09.26,8.18.64,12.24,1.21,1.06.15,1.47.69,1.08,1.57-1.33,3-6.57,15.07-8,18.3.16,2.38-.06,5.18.09,7.55q.31,5.2.83,10.4c1.2,12.37,3,24.68,4.68,37,.82,6.16,1.58,12.34,2.32,18.51.37,3.12.69,6.25.94,9.38.1,1.3.19,2.61.27,3.92l.07,1.16c.1,1.46.32,2.85-.58,4.1a1.21,1.21,0,0,1-1.88.25,3.71,3.71,0,0,1-1-2.49c-.05-.81-.06-1.63-.1-2.45q-.12-2.65-.3-5.31c-.24-3.53-.51-7.07-.82-10.6-1.09-12.37-3.17-24.65-4.55-37-.7-6.22-1.2-12.46-1.46-18.71-.13-3.13-.18-6.25-.15-9.38,0-1.17.07-2.33.15-3.49q-3.11,7.06-6.53,14l-.54,1.09a92.07,92.07,0,0,1-4.66,8.57l-.29.47c-.71,1.11-1.67,2.87-2.95,3.22a10.81,10.81,0,0,1-2.9.05c-.91,0-1.82,0-2.72-.05a13.66,13.66,0,0,1-3-.44,3.57,3.57,0,0,1-.46-.16,9.39,9.39,0,0,1-4.39,3.58,29.08,29.08,0,0,1-4.28,1.34l-.51.13c-1.55.39-3.33.57-4.2,2.07l-.2.35a8.93,8.93,0,0,1-2.36,2.87,13,13,0,0,1-3.9,1.81c-1.4.43-2.83.75-4.26,1.1l-.39.1c-.93.24-1.88.45-2.82.71-.39.11-.8.22-1.19.35a4.34,4.34,0,0,0-1.15.67,2.76,2.76,0,0,1-2.85,1.67,3.55,3.55,0,0,1-1.63-.54c-.85.73-1.79,1.38-2.66,2.05q-1.83,1.41-3.67,2.81-3.81,2.87-7.67,5.65c-4.58,3.28-9.26,6.41-14,9.43-2,1.25-4,2.51-6,3.73l.22.08.43.17c1,.37,2.13,1,2.33,2.16a1.37,1.37,0,0,1-1.29,1.69,3.2,3.2,0,0,1-2.63-1.38c-.3-.32-.64-.63-.93-1a2.22,2.22,0,0,1-.29-.46c-2,1.17-4,2.31-6,3.37l-.51.26c-5.07,2.59-10,5.44-15.12,8a29.63,29.63,0,0,1-4.65,1.85,22.52,22.52,0,0,1,.45,5.43c0,1.72-2.73,1.71-2.67,0l0-.83a21.1,21.1,0,0,1,.46-4.2A20.1,20.1,0,0,1,64,355.08a11.55,11.55,0,0,1-2.73-2.44,25.17,25.17,0,0,1-3.83-6.45,79.31,79.31,0,0,1-4.87-15.36A106.36,106.36,0,0,1,57,272.41a112.05,112.05,0,0,1,6-13.49l.28-.54a63,63,0,0,1,8.06-12.26,40.08,40.08,0,0,1,12-9.09,65.84,65.84,0,0,1,6.79-3l1.13-.38c2.41-1.54,5.34-3,8.27-3a.7.7,0,0,1,.48.19,2.07,2.07,0,0,1,.43.1.82.82,0,0,1,.6.78l0,.12,0,.16.3.08c2.81-.79,5.57-2,8.31-3l.62-.22a20,20,0,0,0,6.53-3.19,16.74,16.74,0,0,0,4.29-5.84C122.26,217.2,122.82,214.24,123.85,211.44Zm56.16,144c.56-.41,1.21.07,1.42.58a7.06,7.06,0,0,1-.61,5.77,1.86,1.86,0,0,1-3.44-.93A7,7,0,0,1,180,355.43Zm5.74-46.36a.23.23,0,0,1,.44,0,38.91,38.91,0,0,1,.59,6.11v.22q.26,3.35.4,6.7.28,6.58.68,13.16c.13,2.18.26,4.36.41,6.53a11.4,11.4,0,0,1,1.41-.67,5.4,5.4,0,0,1,2.22-.32,1.56,1.56,0,0,1,1.55,1.78,1.59,1.59,0,0,1-2,1.31c-1-.16-2.06-.41-3.1-.52.11,1.69.23,3.37.36,5.05.17,2.22.39,4.44.54,6.67,0,.21,0,.42.05.64a9.88,9.88,0,0,1,2-.7l.19,0c1.08-.31,2.24-.74,3.25,0a1.26,1.26,0,0,1,.25,1.94c-.85,1-2.1.79-3.27.74l-.63,0a7.18,7.18,0,0,1-1.69-.21,22.36,22.36,0,0,1,0,4.33.71.71,0,0,1-1.38.19,31,31,0,0,1-1.1-6.43c-.24-2-.39-4.05-.55-6.07l0-.61q-.54-6.68-.85-13.36t-.38-13.37q0-3,.09-6.09l0-.61A36.19,36.19,0,0,1,185.75,309.07ZM92.91,355.76c0-.28.26-.64.6-.59s.63,0,.94.07a5.74,5.74,0,0,1,1.12.46c.61.25,1.29.37,1.92.58a2.07,2.07,0,1,1-1.6,3.78,5.9,5.9,0,0,1-2.14-1.8l-.16-.22a3.23,3.23,0,0,1-.66-1.07A3.78,3.78,0,0,1,92.91,355.76ZM150.59,350a8.48,8.48,0,0,1,4.11.78l.11,0c1.39.48,3.42.82,4.14,2.24a1.56,1.56,0,0,1-.92,2.26c-1.6.4-3-.77-4.37-1.56l-.07,0a8.92,8.92,0,0,1-3.42-2.68A.7.7,0,0,1,150.59,350ZM99,232.36q-.89.19-1.77.36c-2.25,1.21-4.44,2.46-6.76,3.53a81.34,81.34,0,0,0-7.27,3.7,39.07,39.07,0,0,0-11.86,10.86,93.49,93.49,0,0,0-12.67,25.52c-.76,2.3-1.44,4.64-2,7a10.88,10.88,0,0,1,3.75-2.11,1.48,1.48,0,0,1,1.65.67,1.4,1.4,0,0,1,.2.74A1.49,1.49,0,0,1,61.11,284a34.67,34.67,0,0,0-4.44,1.3.7.7,0,0,1-.56,0A104.19,104.19,0,0,0,53.44,304a99.89,99.89,0,0,0,.48,16,7.58,7.58,0,0,1,1.4-.52c.64-.15,1.28-.33,1.91-.53,1.81-.6,2.64,2.4.79,2.86-.69.17-1.39.31-2.09.41a5.62,5.62,0,0,1-1.74,0A100.17,100.17,0,0,0,56,332.06l.17.71A75.79,75.79,0,0,0,60,345a21.64,21.64,0,0,0,3.27,5.36,15.07,15.07,0,0,0,2.2,2.1,10.16,10.16,0,0,0,5.63,1.7,11.36,11.36,0,0,0,4.77-.73,58,58,0,0,0,7.75-3.71l.26-.13,3.33-1.75a4.78,4.78,0,0,1,.69-3.12,1.25,1.25,0,0,1,2.32.59v0a5.55,5.55,0,0,0,.11.79c7.39-4.05,14.63-8.39,21.75-12.9q6.89-4.36,13.6-9c2.23-1.55,4.45-3.12,6.64-4.72,1.15-.83,2.3-1.68,3.44-2.53.47-.36.93-.73,1.41-1.09-.12-.14-.23-.29-.34-.43a19.49,19.49,0,0,1-3.5-7.95,32.29,32.29,0,0,1-.56-5.28l0-.76a18,18,0,0,1,.19-3.89l-1,.54-3.55,2c-2.37,1.33-4.74,2.64-7.15,3.91-4.3,2.25-8.64,4.39-13.1,6.31l-2.17.94a113,113,0,0,1-11.47,4.41c-2.21.68-4.44,1.26-6.68,1.78l.91,1.06a1.6,1.6,0,0,1-.16,2.36,1.58,1.58,0,0,1-2.32-.44l-.94-1.44a2.72,2.72,0,0,1-.38-.91c-1,.22-2.06.43-3.1.63l-2,.37a27.81,27.81,0,0,0-8,3c-.87.48-1.11-.45-.19-1.09a29.1,29.1,0,0,1,9.08-3.85l.16,0q1.78-.5,3.57-1a4.86,4.86,0,0,1-.19-1.5c0-1.2.14-2.41.2-3.61.13-2.52.31-5,.51-7.55.07-1,.16-2,.26-2.92a11.14,11.14,0,0,0-1.9-1l-.12,0c-.75-.2-.5-1.18.18-1.26a5.25,5.25,0,0,1,1.81.09l.27.06c.11-.9.23-1.79.37-2.69a42.67,42.67,0,0,1,1.4-7.1.22.22,0,0,1,.4-.06c1.11,2.13,1.15,4.73,1.27,7.09l0,.28c.15,2.58.16,5.19.11,7.77s-.14,5.31-.26,8a25.77,25.77,0,0,1-.23,3.2,147.42,147.42,0,0,0,19.4-7.8q6.62-3.23,13.1-6.72c2.16-1.17,4.34-2.32,6.5-3.49l2.27-1.23L131,295a7,7,0,0,1,3.19-1.2,1.2,1.2,0,0,1,.93.42,3.84,3.84,0,0,1,2.24-.75c1.22-1.68,2.45-3.34,3.73-5l.95-1.2a31.16,31.16,0,0,1,5.46-5.77,13.22,13.22,0,0,1,3-1.68,1.58,1.58,0,0,1-.72-.38c-1-.95-1.16-2.71-1.37-4a12.3,12.3,0,0,1,.08-4,.65.65,0,0,1,1.18-.15c.45,1,.93,2,1.34,3.05l.12.32c.44,1.17,1.38,2.4,1.32,3.67a1.61,1.61,0,0,1-.31.89c.89-.29,1.81-.56,2.7-.84,2.82-.87,5.66-1.72,8.53-2.39l2.31-.51a38.24,38.24,0,0,1,1.69-5.66,8.69,8.69,0,0,1-1.65-1.4,14.55,14.55,0,0,1-1.35-1.59.8.8,0,0,1,.56-1.35h.21a5.11,5.11,0,0,1,2.21.47l.24.13a8.65,8.65,0,0,1,1.05.61c.43-1,.88-2,1.34-3l.59-1.26a88.78,88.78,0,0,1,5-9.77,4.54,4.54,0,0,1,3.63-2.35,43.58,43.58,0,0,1,5.11.1c2,.07,3.91.15,5.86.26-.5-.53-1-1.11-1.46-1.61a28.14,28.14,0,0,0-2.64-2.36,32.39,32.39,0,0,0-5.94-3.66,59.59,59.59,0,0,1-6.21-3.19,17.89,17.89,0,0,1-3.37-2.9,29.05,29.05,0,0,1-9,18.09c-5.18,5-12.35,7.74-19.37,8.9a42.53,42.53,0,0,1-21.46-1.73,37.9,37.9,0,0,1-9.93-5.41,2.36,2.36,0,0,1-.15.58,5,5,0,0,1-.38.68l-.27.39a7,7,0,0,1-.52.7,2.25,2.25,0,0,1-1.8.78,2.07,2.07,0,0,1-2-2.6,2.29,2.29,0,0,1,1.46-1.62l.72-.27.19-.06a4.83,4.83,0,0,1,.74-.22,33.26,33.26,0,0,1-3.94-4.11c-3.72-4.64-7.4-11.15-6.15-17.31a.23.23,0,0,1,.22-.19,2,2,0,0,1,.61-1.14A4.52,4.52,0,0,0,99,232.36ZM137.64,339a.75.75,0,0,1,.9,1.17l-.89.89a25.5,25.5,0,0,0-2.35,2.63l-.17.24c-1,1.3-2,2.81-3.56,3.3a2.35,2.35,0,0,1-2.63-3.42c1-1.48,2.82-2,4.42-2.65A31.77,31.77,0,0,0,137.64,339Zm-61.35-6.83c.43-.56,1.56-.27,1.27.54-1,2.61-1.36,6.16-3.78,7.89a2.19,2.19,0,0,1-2.66-.34,2.28,2.28,0,0,1-.35-2.66c.52-1.09,1.77-1.88,2.65-2.71l.08-.08A24,24,0,0,0,76.29,332.15Zm101.49,3c.77-.33,2.79-1,3.39-.21l.07.09a.85.85,0,0,1,0,.87,9.85,9.85,0,0,1-2.41,2.57l-.11.08a10.54,10.54,0,0,1-3.41,2.08,1.87,1.87,0,0,1-1.81-3.11,12.1,12.1,0,0,1,4-2.23Zm-73.07-14.9a.65.65,0,0,1,.88-.88,22,22,0,0,0,5.28,2.25,1.86,1.86,0,0,1,1.34,1.76v.12a1.39,1.39,0,0,1-.24.79,1.89,1.89,0,0,1-2.49.66A10.86,10.86,0,0,1,104.71,320.25Zm47-1.66a.3.3,0,0,1,.36-.37,10.94,10.94,0,0,1,3.78,1.67c.63.4,1.23.85,1.85,1.26a2.2,2.2,0,0,1,1.18,1.84,1.42,1.42,0,0,1-1,1.34c-1.43.46-3.06-1.05-4-2l0,0A7,7,0,0,1,151.67,318.59Zm40.78-1.6c-.31-.84.76-1.53,1.45-1.12s1.37.71,2,1.15,1.09.89,1.64,1.33l.27.21c1,.81,2.65,2.8,1.22,4s-3.17-.31-4.08-1.34l-.07-.07a12.36,12.36,0,0,1-1.56-2A18,18,0,0,1,192.45,317ZM179,252.26c-1.71.33-2.4,2.44-3.12,3.81-1.7,3.25-3.26,6.55-4.82,9.85-.49,1-1,2-1.43,3.07a1.63,1.63,0,0,1-.11.23c-1,2.1-2,4.17-3.14,6.16,1.07-.2,2.14-.37,3.22-.51a9.2,9.2,0,0,1,1-3.23l0-.07c.43-1.1.88-2.83,2-3.39a.53.53,0,0,1,.79.45c.08,1.21-1.1,2.59-1.67,3.61-.35.62-.69,1.24-1,1.87-.13.24-.23.47-.36.68.56-.06,1.12-.12,1.67-.16l.37,0c2.07-.14,4.27-.18,6.14.84a3.59,3.59,0,0,1,1.67,4.82c-1.19,2.29-3.8,2.6-6.11,2.78-2.87.23-5.75.65-8.6,1.06s-5.73,1.51-8.64,2.07a.25.25,0,0,1-.19-.45,33.22,33.22,0,0,1,7.64-3l.21-.06a32.11,32.11,0,0,1,4.19-1.16c1.4-.24,2.8-.43,4.21-.57l.14,0c1.55-.13,5.51-.08,5.34-2.38-.11-1.52-2.58-1.78-3.71-1.8-5.17-.08-10.38,1.29-15.29,2.76l-1.1.33c-2,.61-4,1.23-6,1.94a14.09,14.09,0,0,0-5.63,3.78c-1.81,1.9-3.56,3.85-5.43,5.68q-1.77,1.74-3.59,3.43A3.83,3.83,0,0,0,137,296a6.14,6.14,0,0,0-.1,2.49c.24,2.18.3,4.38.6,6.56a22.37,22.37,0,0,0,1.52,6,11,11,0,0,0,1.25,2.12l.4.51a8.76,8.76,0,0,0,.57.7,1.36,1.36,0,0,1,1.23-.54,7.66,7.66,0,0,0,2.94-.15c.81-.19,1.61-.41,2.42-.62,1.58-.4,3.17-.77,4.74-1.23l.26-.08a10.27,10.27,0,0,0,3.31-1.56c1.12-.87,1.47-2.13,2.3-3.23,1.79-2.33,5.64-2.28,8.25-2.92a11.74,11.74,0,0,0,5.88-3l.09-.1a.68.68,0,0,1,.31-.76l.06,0a.61.61,0,0,1,.32-.08,7.31,7.31,0,0,0,.41-.66c.1-.19.36-.05.32.14s0,.22-.07.33a18.94,18.94,0,0,1,4.63-.31h2c.34,0,.85,0,.89,0l.05,0c.12-.05-.05,0,0-.07l.28-.38c.32-.46.63-.92.93-1.4a83.11,83.11,0,0,1-10,1.79,83.85,83.85,0,0,1-10.85.79.77.77,0,0,1,0-1.54c3.83-.15,7.65-.35,11.46-.84q3-.39,5.89-1c.75-.14,1.5-.3,2.25-.46l.56-.12a5.94,5.94,0,0,0,1.84-.52l.28-.49c0-.58-1.51-.5-1.85-.5h-2.92l-5.84,0c-3.88,0-7.79-.17-11.67,0-1,0-1.44-1.47-.51-1.87,4.12-1.76,8.68-2.14,13.08-2.68a53.49,53.49,0,0,0,6.88-1.19l.56-.14a12.47,12.47,0,0,0,4.18-1.67c-1.8-.73-4-.65-5.89-.75h-.14q-3.92-.24-7.83-.25c-5.35,0-10.69.19-16,.44a.12.12,0,0,1,0-.23,84.14,84.14,0,0,1,16.67-1.87q3.93-.06,7.85.11l1,.05c2.22.1,4.7.12,6.56,1.47a1,1,0,0,1,.46.74c2.5-5,4.81-10.07,7.12-15.13,1.8-3.93,3.54-7.89,5.41-11.79l.6-1.26c.81-1.68,1.64-3.37,2.56-5-3.44-.46-6.91-.78-10.37-1C190.83,252.46,180.53,252,179,252.26Zm-1.53,54a.76.76,0,0,1,1.1.45,6.2,6.2,0,0,1,.19,1.13,7.8,7.8,0,0,1-.24,1.35,8.29,8.29,0,0,1-.94,2.69,1.87,1.87,0,0,1-1.6.92,1.7,1.7,0,0,1-1.3-.55,1.85,1.85,0,0,1-.48-1.8A7.76,7.76,0,0,1,177.48,306.28Zm-83.3-1.66a5.91,5.91,0,0,1,5-2.9,2.54,2.54,0,0,1,.67,5,7,7,0,0,1-5.37-.92A.85.85,0,0,1,94.18,304.62Zm-29.33-5.5c-.21-.3.13-.65.44-.58.69.15,1.44.22,2.11.42s1.36.56,2,.8c1.44.51,3,.76,4.36,1.37a1.83,1.83,0,0,1,.94,1.64v.13a1.83,1.83,0,0,1-.25.82,1.94,1.94,0,0,1-2.15.88A15.77,15.77,0,0,1,68,302.25l-.24-.16a9.27,9.27,0,0,1-1.64-1.26A12.42,12.42,0,0,1,64.85,299.12Zm52.73-5.86a.64.64,0,0,1,1.07-.62c.93.86,1.89,1.65,2.79,2.53l.06.06c.65.65,1.59,1.91.75,2.75-1.08,1.07-2.58-.53-3.16-1.36A10.61,10.61,0,0,1,117.58,293.26ZM188.1,288c-1.37,1.45-3.47,2.12-5.33,2.67A46.67,46.67,0,0,1,176,292c-2.19.31-4.37.58-6.52.94,1.63,0,3.26,0,4.89.06l5.63.13a13,13,0,0,1,4.27.36,2.54,2.54,0,0,1,.64.37Q186.58,291,188.1,288Zm-84.33-13.54a10.36,10.36,0,0,1,4.29-.9.55.55,0,0,1,.47.82,9.85,9.85,0,0,1-3,2.82l-.1.07a36.9,36.9,0,0,1-4,2.56c-2.35,1.32-4.45-2.46-2.08-3.57A37.7,37.7,0,0,1,103.77,274.46Zm25.69-3.28c2.19.14,4.37.24,6.56.33,2.53.1,1.68,4-.44,3.21s-4.18-1.55-6.29-2.28c-.64-.22-.59-1.27.13-1.26Zm-56-6.94a11,11,0,0,1,1.71.14l.6.06a12.09,12.09,0,0,1,3.59.78c2.19.94,1,4.45-1.18,4.37A9.26,9.26,0,0,1,73.81,268a8.89,8.89,0,0,1-2.74-2.72c-.27-.36.1-.78.47-.82C72.18,264.43,72.83,264.29,73.47,264.24Zm109.63-7.18a14.31,14.31,0,0,1-2.61,6.22,1.5,1.5,0,0,1-2.55,0c-.95-1.36-.36-2.92.35-4.22l.22-.39a9.49,9.49,0,0,1,1.38-2v-.06A1.62,1.62,0,1,1,183.1,257.06Zm-88.29-14.5a1,1,0,0,1,1.72.46,10.15,10.15,0,0,1,.24,3.51,7.46,7.46,0,0,1-.37,1.88A5.11,5.11,0,0,1,95.17,250c-.94.93-2.92.62-3.17-.84l0-.18a4.71,4.71,0,0,1-.1-2.11,7.26,7.26,0,0,1,.72-1.52l0-.1A10.6,10.6,0,0,1,94.81,242.56Zm76.5,2.38h.19c1.52,0,4.3.4,4.31,2.28a1,1,0,0,1-.76,1c-.91.21-1.49-.32-2.14-.86a6.61,6.61,0,0,0-1.79-1.06A.7.7,0,0,1,171.31,244.94Z"/><path fill-rule="evenodd" fill="#fff" d="M173.93,171.76c-.79-6.26-3.25-12.91-5.84-18.74-5.82-12.34-19.16-14-31.12-16.59-11.8-1.72-24.29-3.27-35.91.16-6.53,1.6-9.08,9.39-8,15.53.59,3.83,2.33,7.45,3.81,11a61.61,61.61,0,0,1,4.83,23c-.2,5.16-.93,11,5,13.22,5.63,2.81,6.11,10.4,13.17,14.72,2.85,5.78,10.62,6.28,16.21,7.62a107.35,107.35,0,0,0,10.69,1.5c10.38,1.33,18.69-1.68,24.12-10.93,3.63-5.62,6.34-12.12,5.67-19C175.84,186.08,174.73,178.93,173.93,171.76Z"/><path fill-rule="evenodd" fill="#060606" d="M137.06,121.44a1.39,1.39,0,0,1,2.06.09,3.88,3.88,0,0,1,1,.47,13.2,13.2,0,0,1,2.26-.07,3.68,3.68,0,0,1,.57-.26,4.13,4.13,0,0,1,3.87.45,2.62,2.62,0,0,1,2-.75,2.54,2.54,0,0,1,1.74.86,2.75,2.75,0,0,1,2.11-1.19,5.15,5.15,0,0,1,3.54,1.22,3,3,0,0,1,2.32-1.08,3.87,3.87,0,0,1,1.79.1,5,5,0,0,1,2.13,1.32,4.37,4.37,0,0,1,3.31-1.41,4.52,4.52,0,0,1,3.69,2.86,8.5,8.5,0,0,1,3,2l.14.15a4.45,4.45,0,0,1,1.3.75,3.64,3.64,0,0,1,1.1,4c.06.23.1.47.15.7a3.86,3.86,0,0,1,2.8,1.93,5,5,0,0,1-.23,4.87A6.45,6.45,0,0,1,176.4,140a4,4,0,0,1-.66,4.17,5.52,5.52,0,0,1-.87,1.06,3.33,3.33,0,0,1-1.59,3.69l-.11.27-.06.14a1.21,1.21,0,0,1-.05.18,2.84,2.84,0,0,1-.53,1.48,13.81,13.81,0,0,0-2,2.72l0,.12a1.17,1.17,0,0,1-1.35.75c3,6,4.49,12.79,5.55,19.39.53,3.29.94,6.6,1.27,9.91l.33,3.31c.28,2.93.54,5.88.54,8.82a29.69,29.69,0,0,1-6,18.38,27.62,27.62,0,0,1-15.53,10.08c-6.38,1.47-13.87.89-19.6-2.48-1.69-1-.21-3.39,1.51-2.59a28.48,28.48,0,0,0,10.16,2.89A26.08,26.08,0,0,0,157.77,221,25.36,25.36,0,0,0,171,210.09a24.85,24.85,0,0,0,3.14-7.91,39.23,39.23,0,0,0,.34-10.66l0-.24c-.52-6.83-1.2-13.69-2.3-20.45a109,109,0,0,0-4.42-17.56,10.49,10.49,0,0,0-2.53-1.65,181.27,181.27,0,0,0-20.05.26,169.68,169.68,0,0,0-17,2l-.6.11a17.44,17.44,0,0,0-3.8.85,3,3,0,0,0-1.67,2.28,40.78,40.78,0,0,0-.84,8c-.11,2.58.13,5.18-.08,7.76a9,9,0,0,1-2.32,5.91,16.1,16.1,0,0,1-2.82,1.88,1.44,1.44,0,0,0-.81,1.55c.17,1.62,1.48,3.66,0,5a.69.69,0,0,1-.95,0,14.77,14.77,0,0,0-2.16-1.69.28.28,0,0,1,.29-.49c.45.2.9.43,1.37.64a8.56,8.56,0,0,0-3.72-1.51,6.69,6.69,0,0,0-1.9-.1c-.47.22-1,.43-1.44.64s-1.24.49-1.86.71a8,8,0,0,0-2.75,7.46,6.11,6.11,0,0,0,2.31,4.15c1.6,1.07,3.74.61,5.47,1.41a7.34,7.34,0,0,1,3.34,3.81l.31.65a26.81,26.81,0,0,0,2.32,4.15,21.06,21.06,0,0,0,3.85,4,18.7,18.7,0,0,0,2.22,1.54l.21.13a2.18,2.18,0,0,1,1.4,1.86,1,1,0,0,1-.47.82c-1.19.75-2.36-.18-3.35-.84a24.61,24.61,0,0,1-3-2.37,23.39,23.39,0,0,1-4.52-5.71c-.91-1.62-1.42-3.89-2.85-5.14a5.7,5.7,0,0,0-3.21-.91,7.9,7.9,0,0,1-2.88-.84c-3.68-2-4.72-7-3.84-10.82a10.58,10.58,0,0,1,.61-1.88c-1.37.23-2.91-1.18-2.35-2.61,0-.11.09-.21.13-.32a4.7,4.7,0,0,1-2-2.67,4.29,4.29,0,0,1-.11-1.81,3,3,0,0,1-1-1.2A3.64,3.64,0,0,1,93,176.89a2.78,2.78,0,0,1-.06-2.72l-.17-.32a4.9,4.9,0,0,1-2.41-4.38,4.5,4.5,0,0,1,.42-1.62l-.06-.19A4.87,4.87,0,0,1,88,164.6a4.36,4.36,0,0,1,.93-3.87,3.72,3.72,0,0,1-1.57-4.18,5.29,5.29,0,0,1,1.08-2.14.43.43,0,0,1,0,0l-.12-.09c-1.57-1.24-2.47-2.81-1.51-4.75a4.32,4.32,0,0,1,1.77-1.88l0-.11h0a5.2,5.2,0,0,1-.34-3.64,4.24,4.24,0,0,1,1.87-2.48,5.36,5.36,0,0,1,0-1.54,3.89,3.89,0,0,1,1.3-2.32c0-.12.06-.24.09-.36a6.72,6.72,0,0,1,1.15-2.14,1.81,1.81,0,0,1,1.42-.69,5,5,0,0,1,.09-1.38,4.71,4.71,0,0,1,2.56-3.41,3.29,3.29,0,0,1,1.71-.27,3.33,3.33,0,0,1,2.58-1.9,4.37,4.37,0,0,1,1.25,0,6.87,6.87,0,0,1,.68-.27l.47-.16a5,5,0,0,1,2.06-1.51,3.89,3.89,0,0,1,2.77,0l.27-.06h0a3.29,3.29,0,0,1,2.16-1.57,3.88,3.88,0,0,1,3.34.86h0a2.71,2.71,0,0,1,2.72-1.8,3.39,3.39,0,0,1,2.27,1.08l1-.12a8.79,8.79,0,0,1,1.2-1.16,1.43,1.43,0,0,1,2.2.28l.33.54.48,0h0a3.1,3.1,0,0,1,2.44-1.34,2.61,2.61,0,0,1,2.22,1.12l1.31,0a8,8,0,0,1,1.79-1.54,1.44,1.44,0,0,1,1.72.22,8.84,8.84,0,0,1,.8.94A4.38,4.38,0,0,1,137.06,121.44ZM106,188.55c1-.56,2.31,0,3.27.52a7.84,7.84,0,0,1,3,2.56c1,1.5-1.31,2.71-2.33,1.36a19.54,19.54,0,0,0-1.89-2.38c-.7-.66-1.7-1.1-2.1-2A.05.05,0,0,1,106,188.55Zm.69-36.32,0,0c.28-.77-.94-1.1-1.22-.34a2.27,2.27,0,0,0,1.2,2.91.66.66,0,0,0,.87-.23.64.64,0,0,0-.23-.87,1,1,0,0,1-.64-1.42Zm-10.55-2.15c.62-.54-.28-1.43-.89-.89a2.25,2.25,0,0,0-.89,2,2.61,2.61,0,0,0,1.38,1.76.63.63,0,0,0,.64-1.09l-.08-.05a1.27,1.27,0,0,1-.68-.79C95.53,150.61,95.85,150.31,96.11,150.08Zm3.48-9.54,0,0c.66-.47,0-1.57-.64-1.09a2.39,2.39,0,0,0-1.15,1.78,2.63,2.63,0,0,0,.84,1.95c.57.6,1.46-.3.9-.89s-.65-1.21,0-1.71Z"/><path fill-rule="evenodd" fill="#060606" d="M159.7,202.77a.16.16,0,0,1,.16.27,8.62,8.62,0,0,0-1.18,1.82c-.34.54-.68,1.07-1,1.62a17,17,0,0,0-.93,1.92l-.06.13h0c.08.19.14.37.19.5v0a2.26,2.26,0,0,1-1.57,2.77,2.75,2.75,0,0,1-3.44-2.75,5.12,5.12,0,0,1,1.89-3.59,10.66,10.66,0,0,1,2.86-2,6.67,6.67,0,0,1,1.46-.52C158.63,202.84,159.19,202.91,159.7,202.77Zm-3.45,5.11a.86.86,0,0,1,.34.4A.58.58,0,0,0,156.25,207.88Zm1.15-19.57c1.59,1,4,3.23,2.31,5.64-2,2.12-4.93-.31-6.37-1.41-1.33-.86-2.82,1.34-1.59,2.33,10.36,7.67,14.56-6.31,6.45-7.7C157.31,187,157,188,157.4,188.31ZM144.28,179l.28,0a11.89,11.89,0,0,1,3.67,0,1.66,1.66,0,0,1,0,3.17,16,16,0,0,1-4.16.23h-.64a3.15,3.15,0,0,1-.47,1.39,6.37,6.37,0,0,1-.64.9,1.71,1.71,0,0,1-2.4,0,2.66,2.66,0,0,1-.74-1.69,2.31,2.31,0,0,1,.06-.52h-.75a31,31,0,0,1-5.45-.27.71.71,0,0,1-.28-1.37,30.11,30.11,0,0,1,7.6-1.49C141.66,179.2,143,179.1,144.28,179Zm20.37-1h.06a25.4,25.4,0,0,1,4.92-.28,1.84,1.84,0,0,1,0,3.68,13.59,13.59,0,0,1-2.7,0,1.6,1.6,0,1,1-3,.36l0-.05c.07-.19.13-.4.2-.61l-.38,0c-1.13-.1-2.7-.3-3.11-1.19a.64.64,0,0,1,.1-.75c.79-.94,2.74-1,3.88-1.08Zm-16.82-7.33a2,2,0,1,1,.58,3.9h-.06c-2.55.28-5.08.79-7.63,1.08-1.16.14-2.33.22-3.5.25l-.84,0a8.24,8.24,0,0,1-3.06-.3h0a.35.35,0,0,1-.08-.63,11.73,11.73,0,0,1,3.53-1.32c1.17-.34,2.36-.65,3.55-.94A75.13,75.13,0,0,0,147.83,170.7Zm10.56.29c.3-1.6,2.57-1.77,3.4-.6.54.18,1.32.37,1.81.52l2.56.75c1.77.5,3.49,1.14,5.23,1.73a.16.16,0,0,1,0,.31,41.91,41.91,0,0,1-7.25.37l-.5,0C161.45,174,157.79,174.12,158.39,171Z"/><path fill-rule="evenodd" fill="#060606" d="M161.87,212c-2-1.76-4.17-5.28-7-2.49-.7.79-1,2.55-2.05,2.9-1.42.46-2.83-1-3.31-2.2-2-6.41,6.2-8.17,10.86-7.13,2.28.94,4,4.7,4.06,6.67.07,1.32-1.05,3.26-2.56,2.25m14.84-9.88a1.37,1.37,0,0,0-.07-.24,1.58,1.58,0,0,0-2,.64,3.73,3.73,0,0,0,.09.46,12.68,12.68,0,0,1-1.07,2.15.63.63,0,0,1-.27,0c-7.37.77-3.77-6.95-11.25-8.86-5.78-1-16.24.13-19,6.16-2.16,9.61-13.1,2.91-16.69-2.09-3.83-4.55-6.31-10.11-8.7-15.51-.5-1.15-2.08-.33-1.91.77-2.21,4.43-2.13,9.75-2.68,14.61-.93,9.69-1.84,23.27,7.16,29.19,11.72,13.25,41,17.93,54.52,5.75,4.68-10.07,4.1-22.35,1.82-33"/></g></g></g><rect fill="#060606" transform="translate(603.45 232.85) rotate(180)" rx="33.15" height="66.3" width="202.1" y="83.28" x="200.67"/><polygon fill-rule="evenodd" fill="#060606" points="228.6 140.2 208.71 171.31 215.44 127.13 228.6 140.2"/><rect fill="#060606" transform="translate(577.98 366.78) rotate(180)" rx="20.51" height="41.02" width="125.03" y="162.88" x="226.48"/><polygon fill-rule="evenodd" fill="#060606" points="234.94 191.29 217.63 206.19 229.47 181.21 234.94 191.29"/><rect fill="#060606" transform="translate(670.5 499.88) rotate(-180)" rx="33.15" height="66.3" width="202.1" y="216.79" x="234.2"/><polygon fill-rule="evenodd" fill="#060606" points="247.21 250.26 210.46 253.78 249.39 231.84 247.21 250.26"/><rect fill="#060606" transform="translate(606.53 635.24) rotate(180)" rx="20.51" height="41.02" width="125.03" y="297.11" x="240.75"/><polygon fill-rule="evenodd" fill="#060606" points="244.38 312.79 223.3 304 250.93 303.38 244.38 312.79"/></svg>