<svg width="20" height="20" viewBox="0 0 20 20" fill="none" xmlns="http://www.w3.org/2000/svg">
<path d="M18.3332 8.74984V12.9165C18.3332 15.8332 16.6665 17.0832 14.1665 17.0832H5.83317C3.33317 17.0832 1.6665 15.8332 1.6665 12.9165V7.08317C1.6665 4.1665 3.33317 2.9165 5.83317 2.9165H11.6665" stroke="black" stroke-width="1.5" stroke-miterlimit="10" stroke-linecap="round" stroke-linejoin="round"/>
<path d="M5.8335 7.5L8.44183 9.58333C9.30017 10.2667 10.7085 10.2667 11.5668 9.58333L12.5502 8.8" stroke="black" stroke-width="1.5" stroke-miterlimit="10" stroke-linecap="round" stroke-linejoin="round"/>
<path d="M16.2503 6.66667C17.4009 6.66667 18.3337 5.73393 18.3337 4.58333C18.3337 3.43274 17.4009 2.5 16.2503 2.5C15.0997 2.5 14.167 3.43274 14.167 4.58333C14.167 5.73393 15.0997 6.66667 16.2503 6.66667Z" stroke="black" stroke-width="1.5" stroke-miterlimit="10" stroke-linecap="round" stroke-linejoin="round"/>
</svg>
